HIERARCHY
ROOT Hips
{
  OFFSET -7.71607 92.0893 -287.674
  CHANNELS 6 Xposition Yposition Zposition Zrotation Xrotation Yrotation
  JOINT LeftUpLeg
  {
    OFFSET 8.91 -6.27 -2.145
    CHANNELS 6 Xposition Yposition Zposition Zrotation Xrotation Yrotation
    JOINT LeftUpLegRoll
    {
      OFFSET 0 -22.7323 0
      CHANNELS 6 Xposition Yposition Zposition Zrotation Xrotation Yrotation
      JOINT LeftLeg
      {
        OFFSET 0 -22.1464 0
        CHANNELS 6 Xposition Yposition Zposition Zrotation Xrotation Yrotation
        JOINT LeftLegRoll
        {
          OFFSET 0 -22.0919 0
          CHANNELS 6 Xposition Yposition Zposition Zrotation Xrotation Yrotation
          JOINT LeftFoot
          {
            OFFSET 0 -18.609 0
            CHANNELS 6 Xposition Yposition Zposition Zrotation Xrotation Yrotation
            JOINT LeftToeBase
            {
              OFFSET 0 -6.26232 12.9547
              CHANNELS 6 Xposition Yposition Zposition Zrotation Xrotation Yrotation
              End Site
              {
                OFFSET 0 0 5.96686
              }
            }
          }
        }
      }
    }
  }
  JOINT RightUpLeg
  {
    OFFSET -8.91 -6.27 -2.145
    CHANNELS 6 Xposition Yposition Zposition Zrotation Xrotation Yrotation
    JOINT RightUpLegRoll
    {
      OFFSET 0 -22.7323 0
      CHANNELS 6 Xposition Yposition Zposition Zrotation Xrotation Yrotation
      JOINT RightLeg
      {
        OFFSET 0 -22.1464 0
        CHANNELS 6 Xposition Yposition Zposition Zrotation Xrotation Yrotation
        JOINT RightLegRoll
        {
          OFFSET 0 -22.0919 0
          CHANNELS 6 Xposition Yposition Zposition Zrotation Xrotation Yrotation
          JOINT RightFoot
          {
            OFFSET 0 -18.609 0
            CHANNELS 6 Xposition Yposition Zposition Zrotation Xrotation Yrotation
            JOINT RightToeBase
            {
              OFFSET 0 -6.26232 12.9547
              CHANNELS 6 Xposition Yposition Zposition Zrotation Xrotation Yrotation
              End Site
              {
                OFFSET 0 0.000942417 5.96686
              }
            }
          }
        }
      }
    }
  }
  JOINT Spine
  {
    OFFSET 0 7.43174 -2.06162
    CHANNELS 6 Xposition Yposition Zposition Zrotation Xrotation Yrotation
    JOINT Spine1
    {
      OFFSET -1.68772e-005 12.1899 -1.41951
      CHANNELS 6 Xposition Yposition Zposition Zrotation Xrotation Yrotation
      JOINT Spine2
      {
        OFFSET 0 11.8846 -1.0903
        CHANNELS 6 Xposition Yposition Zposition Zrotation Xrotation Yrotation
        JOINT Spine3
        {
          OFFSET 1.84329e-005 10.5137 1.04001
          CHANNELS 6 Xposition Yposition Zposition Zrotation Xrotation Yrotation
          JOINT LeftShoulder
          {
            OFFSET 7 4.56855 2.0674
            CHANNELS 6 Xposition Yposition Zposition Zrotation Xrotation Yrotation
            JOINT LeftArm
            {
              OFFSET 10.7073 0 0
              CHANNELS 6 Xposition Yposition Zposition Zrotation Xrotation Yrotation
              JOINT LeftArmRoll
              {
                OFFSET 15.2612 0 0
                CHANNELS 6 Xposition Yposition Zposition Zrotation Xrotation Yrotation
                JOINT LeftForeArm
                {
                  OFFSET 12.0443 0 0
                  CHANNELS 6 Xposition Yposition Zposition Zrotation Xrotation Yrotation
                  JOINT LeftForeArmRoll
                  {
                    OFFSET 16.3277 0 0
                    CHANNELS 6 Xposition Yposition Zposition Zrotation Xrotation Yrotation
                    JOINT LeftHand
                    {
                      OFFSET 10.3694 0 0
                      CHANNELS 6 Xposition Yposition Zposition Zrotation Xrotation Yrotation
                      JOINT LeftHandThumb1
                      {
                        OFFSET 4.34876 -0.798502 4.28243
                        CHANNELS 6 Xposition Yposition Zposition Zrotation Xrotation Yrotation
                        JOINT LeftHandThumb2
                        {
                          OFFSET 2.51259 -0.536099 0.707454
                          CHANNELS 6 Xposition Yposition Zposition Zrotation Xrotation Yrotation
                          JOINT LeftHandThumb3
                          {
                            OFFSET 2.54314 0 0
                            CHANNELS 6 Xposition Yposition Zposition Zrotation Xrotation Yrotation
                            JOINT LeftHandThumb4
                            {
                              OFFSET 2.66675 0 0
                              CHANNELS 6 Xposition Yposition Zposition Zrotation Xrotation Yrotation
                              End Site
                              {
                                OFFSET 0 0 0
                              }
                            }
                          }
                        }
                      }
                      JOINT LeftHandIndex1
                      {
                        OFFSET 8.82198 0.199729 3.47167
                        CHANNELS 6 Xposition Yposition Zposition Zrotation Xrotation Yrotation
                        JOINT LeftHandIndex2
                        {
                          OFFSET 4.22532 0 -0.000262656
                          CHANNELS 6 Xposition Yposition Zposition Zrotation Xrotation Yrotation
                          JOINT LeftHandIndex3
                          {
                            OFFSET 2.65394 0 -0.00016516
                            CHANNELS 6 Xposition Yposition Zposition Zrotation Xrotation Yrotation
                            JOINT LeftHandIndex4
                            {
                              OFFSET 1.95822 0 -0.00012217
                              CHANNELS 6 Xposition Yposition Zposition Zrotation Xrotation Yrotation
                              End Site
                              {
                                OFFSET 0 0 0
                              }
                            }
                          }
                        }
                      }
                      JOINT LeftHandMiddle1
                      {
                        OFFSET 8.80988 0.50089 1.30468
                        CHANNELS 6 Xposition Yposition Zposition Zrotation Xrotation Yrotation
                        JOINT LeftHandMiddle2
                        {
                          OFFSET 4.86325 0 0
                          CHANNELS 6 Xposition Yposition Zposition Zrotation Xrotation Yrotation
                          JOINT LeftHandMiddle3
                          {
                            OFFSET 2.76524 0 0
                            CHANNELS 6 Xposition Yposition Zposition Zrotation Xrotation Yrotation
                            JOINT LeftHandMiddle4
                            {
                              OFFSET 2.00563 0 0
                              CHANNELS 6 Xposition Yposition Zposition Zrotation Xrotation Yrotation
                              End Site
                              {
                                OFFSET 0 0 0
                              }
                            }
                          }
                        }
                      }
                      JOINT LeftHandRing1
                      {
                        OFFSET 8.89376 0.37992 -0.793159
                        CHANNELS 6 Xposition Yposition Zposition Zrotation Xrotation Yrotation
                        JOINT LeftHandRing2
                        {
                          OFFSET 4.53776 0 -0.000282138
                          CHANNELS 6 Xposition Yposition Zposition Zrotation Xrotation Yrotation
                          JOINT LeftHandRing3
                          {
                            OFFSET 2.30453 0 -0.000143448
                            CHANNELS 6 Xposition Yposition Zposition Zrotation Xrotation Yrotation
                            JOINT LeftHandRing4
                            {
                              OFFSET 1.92335 0 -0.00012044
                              CHANNELS 6 Xposition Yposition Zposition Zrotation Xrotation Yrotation
                              End Site
                              {
                                OFFSET 0 0 0
                              }
                            }
                          }
                        }
                      }
                      JOINT LeftHandPinky1
                      {
                        OFFSET 8.88227 -0.313027 -2.49036
                        CHANNELS 6 Xposition Yposition Zposition Zrotation Xrotation Yrotation
                        JOINT LeftHandPinky2
                        {
                          OFFSET 3.0441 0 0
                          CHANNELS 6 Xposition Yposition Zposition Zrotation Xrotation Yrotation
                          JOINT LeftHandPinky3
                          {
                            OFFSET 1.9745 0 0
                            CHANNELS 6 Xposition Yposition Zposition Zrotation Xrotation Yrotation
                            JOINT LeftHandPinky4
                            {
                              OFFSET 1.66661 0 0
                              CHANNELS 6 Xposition Yposition Zposition Zrotation Xrotation Yrotation
                              End Site
                              {
                                OFFSET 0 0 0
                              }
                            }
                          }
                        }
                      }
                    }
                  }
                }
              }
            }
          }
          JOINT RightShoulder
          {
            OFFSET -7 4.56855 2.0673
            CHANNELS 6 Xposition Yposition Zposition Zrotation Xrotation Yrotation
            JOINT RightArm
            {
              OFFSET -10.7073 0 0
              CHANNELS 6 Xposition Yposition Zposition Zrotation Xrotation Yrotation
              JOINT RightArmRoll
              {
                OFFSET -15.2612 0 0
                CHANNELS 6 Xposition Yposition Zposition Zrotation Xrotation Yrotation
                JOINT RightForeArm
                {
                  OFFSET -12.0444 0 0
                  CHANNELS 6 Xposition Yposition Zposition Zrotation Xrotation Yrotation
                  JOINT RightForeArmRoll
                  {
                    OFFSET -16.3276 0 0
                    CHANNELS 6 Xposition Yposition Zposition Zrotation Xrotation Yrotation
                    JOINT RightHand
                    {
                      OFFSET -10.3694 0 0
                      CHANNELS 6 Xposition Yposition Zposition Zrotation Xrotation Yrotation
                      JOINT RightHandThumb1
                      {
                        OFFSET -4.34838 -0.798501 4.28282
                        CHANNELS 6 Xposition Yposition Zposition Zrotation Xrotation Yrotation
                        JOINT RightHandThumb2
                        {
                          OFFSET -2.51253 -0.536099 0.707679
                          CHANNELS 6 Xposition Yposition Zposition Zrotation Xrotation Yrotation
                          JOINT RightHandThumb3
                          {
                            OFFSET -2.54159 0 0.0888232
                            CHANNELS 6 Xposition Yposition Zposition Zrotation Xrotation Yrotation
                            JOINT RightHandThumb4
                            {
                              OFFSET -2.66512 0 0.0931403
                              CHANNELS 6 Xposition Yposition Zposition Zrotation Xrotation Yrotation
                              End Site
                              {
                                OFFSET 0 0 0
                              }
                            }
                          }
                        }
                      }
                      JOINT RightHandIndex1
                      {
                        OFFSET -8.82167 0.199732 3.47246
                        CHANNELS 6 Xposition Yposition Zposition Zrotation Xrotation Yrotation
                        JOINT RightHandIndex2
                        {
                          OFFSET -4.22532 0 0.0001146
                          CHANNELS 6 Xposition Yposition Zposition Zrotation Xrotation Yrotation
                          JOINT RightHandIndex3
                          {
                            OFFSET -2.65394 0 7.19601e-005
                            CHANNELS 6 Xposition Yposition Zposition Zrotation Xrotation Yrotation
                            JOINT RightHandIndex4
                            {
                              OFFSET -1.95822 0 5.30956e-005
                              CHANNELS 6 Xposition Yposition Zposition Zrotation Xrotation Yrotation
                              End Site
                              {
                                OFFSET 0 0 0
                              }
                            }
                          }
                        }
                      }
                      JOINT RightHandMiddle1
                      {
                        OFFSET -8.80976 0.500893 1.30547
                        CHANNELS 6 Xposition Yposition Zposition Zrotation Xrotation Yrotation
                        JOINT RightHandMiddle2
                        {
                          OFFSET -4.86325 0 0.000131881
                          CHANNELS 6 Xposition Yposition Zposition Zrotation Xrotation Yrotation
                          JOINT RightHandMiddle3
                          {
                            OFFSET -2.76524 0 7.49854e-005
                            CHANNELS 6 Xposition Yposition Zposition Zrotation Xrotation Yrotation
                            JOINT RightHandMiddle4
                            {
                              OFFSET -2.00563 0 5.43888e-005
                              CHANNELS 6 Xposition Yposition Zposition Zrotation Xrotation Yrotation
                              End Site
                              {
                                OFFSET 0 0 0
                              }
                            }
                          }
                        }
                      }
                      JOINT RightHandRing1
                      {
                        OFFSET -8.89383 0.379922 -0.792364
                        CHANNELS 6 Xposition Yposition Zposition Zrotation Xrotation Yrotation
                        JOINT RightHandRing2
                        {
                          OFFSET -4.53776 0 0.000123049
                          CHANNELS 6 Xposition Yposition Zposition Zrotation Xrotation Yrotation
                          JOINT RightHandRing3
                          {
                            OFFSET -2.30453 0 6.24859e-005
                            CHANNELS 6 Xposition Yposition Zposition Zrotation Xrotation Yrotation
                            JOINT RightHandRing4
                            {
                              OFFSET -1.92335 0 5.21537e-005
                              CHANNELS 6 Xposition Yposition Zposition Zrotation Xrotation Yrotation
                              End Site
                              {
                                OFFSET 0 0 0
                              }
                            }
                          }
                        }
                      }
                      JOINT RightHandPinky1
                      {
                        OFFSET -8.8825 -0.313025 -2.48956
                        CHANNELS 6 Xposition Yposition Zposition Zrotation Xrotation Yrotation
                        JOINT RightHandPinky2
                        {
                          OFFSET -3.0478 0 8.26466e-005
                          CHANNELS 6 Xposition Yposition Zposition Zrotation Xrotation Yrotation
                          JOINT RightHandPinky3
                          {
                            OFFSET -1.9769 0 5.36145e-005
                            CHANNELS 6 Xposition Yposition Zposition Zrotation Xrotation Yrotation
                            JOINT RightHandPinky4
                            {
                              OFFSET -1.66864 0 4.5245e-005
                              CHANNELS 6 Xposition Yposition Zposition Zrotation Xrotation Yrotation
                              End Site
                              {
                                OFFSET 0 0 0
                              }
                            }
                          }
                        }
                      }
                    }
                  }
                }
              }
            }
          }
          JOINT Neck
          {
            OFFSET 0 11.5156 1.94702
            CHANNELS 6 Xposition Yposition Zposition Zrotation Xrotation Yrotation
            JOINT Head
            {
              OFFSET -1.26215e-005 11.0733 1.65432
              CHANNELS 6 Xposition Yposition Zposition Zrotation Xrotation Yrotation
              End Site
              {
                OFFSET 0 17.7047 0
              }
            }
          }
        }
      }
    }
  }
}
MOTION
Frames:	2
Frame Time:	0.0333333
-29.7328 93.6951 -235.98 1.09789 10.6218 -16.2087 8.91 -6.27 -2.145 -14.249 14.1937 4.12639 -8.88178e-015 -22.7323 -4.71169e-007 1.12845e-017 -2.81164e-016 4.59668 -1.24345e-014 -22.1464 5.17666e-008 -1.78447e-007 58.5514 3.00266 -8.88178e-015 -22.0919 1.36431e-008 7.35235e-019 -7.18219e-017 1.17302 -1.42109e-014 -18.609 1.69696e-008 -11.8731 21.9847 2.31423 5.32907e-015 -6.26232 12.9547 -4.29059e-007 -1.04696e-007 -7.84016e-016 -8.91 -6.27 -2.145 4.37104 -42.1803 1.90782 -2.71633e-006 -22.7323 -4.51374e-007 1.38069e-020 9.84269e-018 -0.160743 -4.24549e-013 -22.1464 1.4554e-008 -2.33464e-007 25.5616 7.46093 9.19562e-007 -22.0919 4.09714e-008 5.88153e-019 -6.42383e-017 1.04915 -3.606e-013 -18.609 -7.98564e-010 2.01199 -20.9155 0.366668 -6.4416e-011 -6.26232 12.9547 0.00291259 9.1391e-008 -4.6458e-012 2.32301e-006 7.43174 -2.06162 0.0664371 1.88996 -1.99415 -1.68772e-005 12.1899 -1.41951 1.23781 -1.56307 -2.09925 -3.87879e-006 11.8846 -1.0903 1.32103 -1.53319 -2.06898 1.84329e-005 10.5137 1.04001 1.40254 -1.49877 -2.03897 7 4.56855 2.0674 -11.3021 0 -1.47626 10.7073 -5.08749e-012 -5.32907e-015 -28.8404 12.6784 16.3568 15.2612 3.95062e-012 1.16365e-008 -0 21.3978 0 12.0443 -1.25056e-012 2.87898e-009 -8.15703 0.896308 -96.2283 16.3277 2.84217e-012 -1.18649e-008 -0 9.68834 0 10.3694 3.12639e-013 2.29894e-008 1.27567 -0.238684 -21.1948 4.34876 -0.798502 4.28243 1.86908 -9.43081 -41.5726 2.51259 -0.536099 0.707454 -36.7255 -1.19628 1.6029 2.54314 9.9476e-013 9.34198e-006 -20.1516 0 0 2.66675 -1.27898e-012 -8.21025e-006 -0 0 0 8.82198 0.199729 3.47167 -13.7225 -0.474622 -0.173779 4.22532 4.83737e-011 -0.000262656 -46.1567 0 0 2.65394 2.98712e-011 -0.00016516 -39.3945 0 0 1.95822 2.2311e-011 -0.00012217 -0 0 0 8.80988 0.50089 1.30468 -17.0964 -0.588178 7.40458 4.86325 1.10845e-012 6.11217e-012 -42.9492 0 0 2.76524 3.69482e-013 -1.91784e-007 -35.7682 0 0 2.00563 -8.52651e-013 -1.13863e-006 -0 0 0 8.89376 0.37992 -0.793159 -4.88471 -0.170371 3.53716 4.53776 8.2423e-013 -0.000282138 -37.6843 0 0 2.30453 0 -0.000143448 -30.556 0 0 1.92335 -4.26326e-013 -0.00012044 -0 0 0 8.88227 -0.313027 -2.49036 -5.41632 -0.18886 -0.892608 3.0441 -2.04636e-012 1.33227e-015 -28.8292 0 0 1.9745 2.84217e-013 -1.43329e-007 -23.2542 0 0 1.66661 1.64846e-012 7.91347e-007 -0 0 0 -7 4.56855 2.0673 16.0939 2.47306e-016 4.12036 -10.7073 5.20117e-012 2.04281e-014 45.4907 14.8776 -29.833 -15.2612 -6.33804e-012 1.86659e-008 2.15483e-015 20.5638 2.15483e-015 -12.0444 -8.46967e-012 -7.98782e-009 -29.3985 29.4438 48.897 -16.3276 -1.11982e-011 -2.36264e-008 -7.9945e-006 -11.0832 -2.76026e-006 -10.3694 -8.52651e-014 1.64166e-008 -23.8722 -2.53549 11.9528 -4.34838 -0.798501 4.28282 -1.87429 -9.43305 41.572 -2.51253 -0.536099 0.707679 35.2056 -1.15334 -1.63407 -2.54159 2.76827e-011 0.0888232 19.6182 0 0 -2.66512 1.86731e-011 0.0931403 0 0 -0 -8.82167 0.199732 3.47246 13.7222 -0.474612 0.173791 -4.22532 2.47269e-012 0.0001146 46.1567 0 0 -2.65394 1.39266e-012 7.19601e-005 39.3945 0 0 -1.95822 1.36424e-012 5.30956e-005 0 0 -0 -8.80976 0.500893 1.30547 17.0962 -0.588172 -5.4081 -4.86325 -1.3074e-012 0.000131881 42.9233 0 0 -2.76524 1.76215e-012 7.49854e-005 35.8254 0 0 -2.00563 0 5.43888e-005 0 0 -0 -8.89383 0.379922 -0.792364 4.88354 -0.17033 -1.54071 -4.53776 4.09273e-012 0.000123049 37.6616 0 0 -2.30453 4.12115e-012 6.24859e-005 30.592 0 0 -1.92335 7.38964e-013 5.21537e-005 0 0 -0 -8.8825 -0.313025 -2.48956 5.35436 -0.186706 2.89152 -3.0478 -6.65921e-011 8.26466e-005 28.8411 0 0 -1.9769 -3.85683e-011 5.36145e-005 23.4633 0 0 -1.66864 -3.54419e-011 4.5245e-005 0 0 -0 2.32301e-006 11.5156 1.94702 8.86774 -23.5761 11.7625 -1.26215e-005 11.0733 1.65432 -11.2716 26.1132 16.0972 
-30.4608 91.9942 -227.733 0.254607 9.76379 -14.8752 8.91 -6.27 -2.145 -9.59517 8.76605 5.30298 -8.88178e-015 -22.7323 -4.71169e-007 1.54803e-017 -3.29212e-016 5.38437 -1.24345e-014 -22.1464 5.17666e-008 -3.85435e-007 76.8923 -1.60206 -8.88178e-015 -22.0919 1.36431e-008 2.11393e-018 -1.21772e-016 1.98909 -1.42109e-014 -18.609 1.69696e-008 -10.7535 12.9269 1.22181 5.32907e-015 -6.26232 12.9547 -4.29059e-007 -1.04696e-007 -7.84016e-016 -8.91 -6.27 -2.145 4.54912 -43.4598 2.04664 -2.71633e-006 -22.7323 -4.51374e-007 6.42848e-021 6.71616e-018 -0.109683 -4.24549e-013 -22.1464 1.4554e-008 -3.679e-007 34.9175 4.18708 9.19562e-007 -22.0919 4.09714e-008 5.91139e-019 -6.44011e-017 1.05181 -3.606e-013 -18.609 -7.98564e-010 -1.24243 -6.03767 -0.0699805 -6.4416e-011 -6.26232 12.9547 0.998561 -6.22645 0.108313 2.32301e-006 7.43174 -2.06162 0.580345 2.28207 -2.01559 -1.68772e-005 12.1899 -1.41951 1.02585 -1.51726 -2.03914 -3.87879e-006 11.8846 -1.0903 1.11316 -1.50196 -2.00294 1.84329e-005 10.5137 1.04001 1.19934 -1.4819 -1.96638 7 4.56855 2.0674 -10.7802 0 -0.121803 10.7073 -5.08749e-012 -5.32907e-015 -31.9827 16.5808 20.0439 15.2612 3.95062e-012 1.16365e-008 -0 23.798 0 12.0443 -1.25056e-012 2.87898e-009 -12.1865 1.53534 -97.0723 16.3277 2.84217e-012 -1.18649e-008 -0 11.104 0 10.3694 3.12639e-013 2.29894e-008 6.18921 -0.711217 -13.098 4.34876 -0.798502 4.28243 1.86908 -9.43081 -41.5726 2.51259 -0.536099 0.707454 -36.7255 -1.19628 1.6029 2.54314 9.9476e-013 9.34198e-006 -20.1516 0 0 2.66675 -1.27898e-012 -8.21025e-006 -0 0 0 8.82198 0.199729 3.47167 -13.7225 -0.474622 -0.173779 4.22532 4.83737e-011 -0.000262656 -46.1567 0 0 2.65394 2.98712e-011 -0.00016516 -39.3945 0 0 1.95822 2.2311e-011 -0.00012217 -0 0 0 8.80988 0.50089 1.30468 -17.0964 -0.588178 7.40458 4.86325 1.10845e-012 6.11217e-012 -42.9492 0 0 2.76524 3.69482e-013 -1.91784e-007 -35.7682 0 0 2.00563 -8.52651e-013 -1.13863e-006 -0 0 0 8.89376 0.37992 -0.793159 -4.88471 -0.170371 3.53716 4.53776 8.2423e-013 -0.000282138 -37.6843 0 0 2.30453 0 -0.000143448 -30.556 0 0 1.92335 -4.26326e-013 -0.00012044 -0 0 0 8.88227 -0.313027 -2.49036 -5.41632 -0.18886 -0.892608 3.0441 -2.04636e-012 1.33227e-015 -28.8292 0 0 1.9745 2.84217e-013 -1.43329e-007 -23.2542 0 0 1.66661 1.64846e-012 7.91347e-007 -0 0 0 -7 4.56855 2.0673 19.6131 2.22513e-016 4.93493 -10.7073 5.20117e-012 2.04281e-014 45.5902 13.2864 -26.4111 -15.2612 -6.33804e-012 1.86659e-008 1.95823e-015 18.4229 1.95823e-015 -12.0444 -8.46967e-012 -7.98782e-009 -26.5385 30.555 44.4915 -16.3276 -1.11982e-011 -2.36264e-008 -7.94592e-006 -10.0903 -2.75134e-006 -10.3694 -8.52651e-014 1.64166e-008 -23.2554 -3.21605 15.5372 -4.34838 -0.798501 4.28282 -1.87429 -9.43305 41.572 -2.51253 -0.536099 0.707679 35.2056 -1.15334 -1.63407 -2.54159 2.76827e-011 0.0888232 19.6182 0 0 -2.66512 1.86731e-011 0.0931403 0 0 -0 -8.82167 0.199732 3.47246 13.7222 -0.474612 0.173791 -4.22532 2.47269e-012 0.0001146 46.1567 0 0 -2.65394 1.39266e-012 7.19601e-005 39.3945 0 0 -1.95822 1.36424e-012 5.30956e-005 0 0 -0 -8.80976 0.500893 1.30547 17.0962 -0.588172 -5.4081 -4.86325 -1.3074e-012 0.000131881 42.9233 0 0 -2.76524 1.76215e-012 7.49854e-005 35.8254 0 0 -2.00563 0 5.43888e-005 0 0 -0 -8.89383 0.379922 -0.792364 4.88354 -0.17033 -1.54071 -4.53776 4.09273e-012 0.000123049 37.6616 0 0 -2.30453 4.12115e-012 6.24859e-005 30.592 0 0 -1.92335 7.38964e-013 5.21537e-005 0 0 -0 -8.8825 -0.313025 -2.48956 5.35436 -0.186706 2.89152 -3.0478 -6.65921e-011 8.26466e-005 28.8411 0 0 -1.9769 -3.85683e-011 5.36145e-005 23.4633 0 0 -1.66864 -3.54419e-011 4.5245e-005 0 0 -0 2.32301e-006 11.5156 1.94702 9.19829 -24.0241 11.5666 -1.26215e-005 11.0733 1.65432 -11.0761 26.3235 15.8603 
